0.06m3min_grf.mot
version=1
nRows=30
nColumns 19
inDegrees=yes
endheader
time	1_ground_force_vx	1_ground_force_vy	1_ground_force_vz	1_ground_force_px	1_ground_force_py	1_ground_force_pz	1_ground_torque_x	1_ground_torque_y	1_ground_torque_z	2_ground_force_vx	2_ground_force_vy	2_ground_force_vz	2_ground_force_px	2_ground_force_py	2_ground_force_pz	2_ground_torque_x	2_ground_torque_y	2_ground_torque_z
            3.751500	            0.002401	           -5.049995	            0.574484	           -0.233013	            0.005581	           -0.255695	           -0.773712	            0.010243	           -0.261029	            0.288931	           -2.207593	           -0.336501	           -0.232311	            0.006130	           -0.833667	           -0.431610	           -0.133696	           -0.056839
            3.752000	           -0.135747	           -4.147907	            0.395266	           -0.233013	            0.005581	           -0.255695	           -0.728915	           -0.128469	           -0.267631	           -0.041012	           -1.656332	           -0.334390	           -0.232311	            0.006130	           -0.833667	           -0.413039	           -0.067661	           -0.000060
            3.752500	           -0.272249	           -5.411169	            0.711188	           -0.233013	            0.005581	           -0.255695	           -0.722892	           -0.138005	           -0.217112	            0.193319	           -1.656156	           -0.146778	           -0.232311	            0.006130	           -0.833667	           -0.413147	           -0.057603	           -0.169678
            3.753000	           -0.135520	           -4.148300	            0.486978	           -0.233013	            0.005581	           -0.255695	           -0.732988	           -0.008061	           -0.323499	            0.055449	           -2.393424	           -0.102418	           -0.232311	            0.006130	           -0.833667	           -0.450557	           -0.095751	           -0.113247
            3.753500	           -0.227074	           -4.869380	            0.484114	           -0.233013	            0.005581	           -0.255695	           -0.694817	            0.065529	           -0.251970	           -0.038936	           -2.209447	           -0.148649	           -0.232311	            0.006130	           -0.833667	           -0.356716	           -0.067189	           -0.075485
            3.754000	           -0.181330	           -4.328574	            0.486319	           -0.233013	            0.005581	           -0.255695	           -0.713937	            0.093277	           -0.249868	            0.242184	           -2.208599	           -0.101841	           -0.232311	            0.006130	           -0.833667	           -0.394177	           -0.086566	            0.018714
            3.754500	           -0.090099	           -4.327770	            0.302668	           -0.233013	            0.005581	           -0.255695	           -0.631149	            0.047353	           -0.302755	            0.101572	           -2.208605	           -0.242565	           -0.232311	            0.006130	           -0.833667	           -0.469189	           -0.133765	           -0.075673
            3.755000	           -0.273163	           -4.148130	            0.441464	           -0.233013	            0.005581	           -0.255695	           -0.787170	           -0.045432	           -0.254197	           -0.086451	           -2.025468	           -0.147972	           -0.232311	            0.006130	           -0.833667	           -0.431790	           -0.077182	           -0.000086
            3.755500	           -0.273471	           -4.327806	            0.303123	           -0.233013	            0.005581	           -0.255695	           -0.687356	           -0.147015	           -0.273672	            0.052831	           -1.657166	           -0.005933	           -0.232311	            0.006130	           -0.833667	           -0.338081	           -0.047543	           -0.263928
            3.756000	            0.001865	           -5.229277	            0.344431	           -0.233013	            0.005581	           -0.255695	           -0.688713	           -0.091426	           -0.261670	           -0.178033	           -2.579255	            0.131665	           -0.232311	            0.006130	           -0.833667	           -0.375501	           -0.067257	           -0.075477
            3.756500	           -0.135031	           -4.329352	            0.669629	           -0.233013	            0.005581	           -0.255695	           -0.778102	            0.019425	           -0.266869	           -0.038916	           -2.209614	           -0.101721	           -0.232311	            0.006130	           -0.833667	           -0.356614	           -0.095547	           -0.075586
            3.757000	            0.093614	           -4.328325	            0.439780	           -0.233013	            0.005581	           -0.255695	           -0.787181	            0.093629	           -0.294351	            0.240855	           -1.840303	           -0.100526	           -0.232311	            0.006130	           -0.833667	           -0.394362	           -0.057536	           -0.169686
            3.757500	           -0.089527	           -5.590220	            0.434825	           -0.233013	            0.005581	           -0.255695	           -0.654851	            0.130302	           -0.245902	            0.241601	           -2.025121	            0.086529	           -0.232311	            0.006130	           -0.833667	           -0.319137	           -0.067120	           -0.056651
            3.758000	           -0.135193	           -4.689490	            0.576371	           -0.233013	            0.005581	           -0.255695	           -0.773725	            0.009777	           -0.172918	            0.194608	           -2.024118	           -0.241948	           -0.232311	            0.006130	           -0.833667	           -0.393997	           -0.143080	           -0.038039
            3.758500	           -0.089806	           -4.688695	            0.392834	           -0.233013	            0.005581	           -0.255695	           -0.803803	           -0.063517	           -0.321587	            0.098311	           -1.288365	           -0.098495	           -0.232311	            0.006130	           -0.833667	           -0.469360	           -0.086501	           -0.075505
            3.759000	           -0.227155	           -5.049449	            0.437485	           -0.233013	            0.005581	           -0.255695	           -0.767854	           -0.082300	           -0.271214	           -0.089171	           -1.288372	           -0.286128	           -0.232311	            0.006130	           -0.833667	           -0.450583	           -0.086366	           -0.094363
            3.759500	           -0.364034	           -4.870390	            0.713735	           -0.233013	            0.005581	           -0.255695	           -0.704778	           -0.026639	           -0.333397	            0.098270	           -1.288030	           -0.192352	           -0.232311	            0.006130	           -0.833667	           -0.356792	           -0.048216	           -0.094268
            3.760000	           -0.364702	           -4.328610	            0.486774	           -0.233013	            0.005581	           -0.255695	           -0.751627	            0.019480	           -0.314304	            0.008558	           -2.393259	           -0.196254	           -0.232311	            0.006130	           -0.833667	           -0.394210	           -0.086297	           -0.056686
            3.760500	           -0.318775	           -5.409998	            0.436167	           -0.233013	            0.005581	           -0.255695	           -0.749217	            0.084606	           -0.406028	            0.194546	           -2.023616	           -0.382732	           -0.232311	            0.006130	           -0.833667	           -0.300258	           -0.095343	           -0.075610
            3.761000	            0.094315	           -5.050370	            0.665968	           -0.233013	            0.005581	           -0.255695	           -0.759086	            0.075398	           -0.350867	            0.286272	           -1.471000	           -0.333873	           -0.232311	            0.006130	           -0.833667	           -0.488092	           -0.114524	           -0.188699
            3.761500	           -0.502180	           -5.229768	            0.437395	           -0.233013	            0.005581	           -0.255695	           -0.711704	            0.028908	           -0.376589	           -0.178177	           -2.578084	           -0.196832	           -0.232311	            0.006130	           -0.833667	           -0.431754	           -0.105002	           -0.150989
            3.762000	           -0.135487	           -4.328565	            0.486205	           -0.233013	            0.005581	           -0.255695	           -0.751726	           -0.072607	           -0.361319	            0.240210	           -1.656322	           -0.052941	           -0.232311	            0.006130	           -0.833667	           -0.356767	           -0.057602	           -0.113152
            3.762500	           -0.227628	           -4.327797	            0.303009	           -0.233013	            0.005581	           -0.255695	           -0.574772	           -0.109917	           -0.290636	            0.194690	           -2.024788	           -0.054235	           -0.232311	            0.006130	           -0.833667	           -0.356604	           -0.104798	           -0.132171
            3.763000	            0.001635	           -3.967418	            0.349842	           -0.233013	            0.005581	           -0.255695	           -0.746081	           -0.054061	           -0.355402	            0.193964	           -1.840137	           -0.194363	           -0.232311	            0.006130	           -0.833667	           -0.394183	           -0.104866	           -0.151005
            3.763500	           -0.089611	           -4.508822	            0.485319	           -0.233013	            0.005581	           -0.255695	           -0.751675	            0.056902	           -0.377601	            0.379349	           -1.286848	           -0.239399	           -0.232311	            0.006130	           -0.833667	           -0.431628	           -0.124378	           -0.019105
            3.764000	           -0.364639	           -3.427675	            0.582351	           -0.233013	            0.005581	           -0.255695	           -0.737451	            0.093594	           -0.351650	           -0.041636	           -1.472519	           -0.239877	           -0.232311	            0.006130	           -0.833667	           -0.337743	           -0.114519	           -0.037961
            3.764500	           -0.273585	           -4.327609	            0.257267	           -0.233013	            0.005581	           -0.255695	           -0.647845	            0.047022	           -0.254140	            0.149087	           -2.392584	           -0.243242	           -0.232311	            0.006130	           -0.833667	           -0.375246	           -0.133560	           -0.038013
            3.765000	           -0.319086	           -4.328208	            0.394949	           -0.233013	            0.005581	           -0.255695	           -0.653843	           -0.026700	           -0.312790	            0.101531	           -2.208270	           -0.336421	           -0.232311	            0.006130	           -0.833667	           -0.356657	           -0.076843	           -0.018968
            3.765500	           -0.273405	           -4.688337	            0.301577	           -0.233013	            0.005581	           -0.255695	           -0.706190	           -0.072587	           -0.386082	           -0.038916	           -2.209614	           -0.101721	           -0.232311	            0.006130	           -0.833667	           -0.225362	           -0.038020	           -0.169691
            3.766000	           -0.043816	           -4.869148	            0.437803	           -0.233013	            0.005581	           -0.255695	           -0.768100	           -0.026514	           -0.319556	           -0.180877	           -1.841156	           -0.288060	           -0.232311	            0.006130	           -0.833667	           -0.413005	           -0.077114	           -0.000094
